inDegrees=yes
name=ik_lifting_orientations
DataType=double
version=3
OpenSimVersion=4.5-2024-01-10-34fd6af
endheader
time	pelvis_tilt	pelvis_list	pelvis_rotation	pelvis_tx	pelvis_ty	pelvis_tz	hip_flexion_r	hip_adduction_r	hip_rotation_r	knee_angle_r	knee_angle_r_beta	ankle_angle_r	subtalar_angle_r	mtp_angle_r	hip_flexion_l	hip_adduction_l	hip_rotation_l	knee_angle_l	knee_angle_l_beta	ankle_angle_l	subtalar_angle_l	mtp_angle_l	lumbar_extension	lumbar_bending	lumbar_rotation	arm_flex_r	arm_add_r	arm_rot_r	elbow_flex_r	pro_sup_r	wrist_flex_r	wrist_dev_r	arm_flex_l	arm_add_l	arm_rot_l	elbow_flex_l	pro_sup_l	wrist_flex_l	wrist_dev_l
0.02	0.006538201276577399	0.008383782020160513	-90.00195334925765	0	0.9399999998679526	0	44.18002784655512	-17.04513798835443	0	59.67573536037024	1.041538065587265	-9.229409718104906	0	0	44.18002784655512	-17.04513798835443	0	59.67573536037024	1.041538065587265	-9.229409718104906	0	0	0.008687401674670008	-0.01137736927420347	0.003853513751047925	-0.189607651706618	-0.032288661766586	-0.007475085976983722	0.3972748180111736	4.674699854986317	0	0	0	-7.273215570976625	0	85.41201050601732	4.674699854986317	0	0
0.03	0.01759182509446188	-0.007645899923803968	-90.03433131561296	0	0.9399999998679526	0	44.22009202908282	-16.06889435106428	0	59.68838243681459	1.041758798711971	-8.529462221387032	0	0	44.22009202908282	-16.06889435106428	0	59.68838243681459	1.041758798711971	-8.529462221387032	0	0	-0.02394589906892811	-0.01191853646079854	0.0288897333955731	-0.2206212750887612	-0.06628833053116312	0.0007453638098526841	0.5144209171672469	4.510964749349363	0	0	0	-7.476199772098551	0	85.57269007638735	4.510964749349363	0	0
0.04	0.001624016365157391	-0.003957304097070766	-90.06553616256514	0	0.9399999998679526	0	44.23682002721549	-15.65739079777522	0	59.69366605331192	1.041851015216262	-8.233421519234669	0	0	44.23682002721549	-15.65739079777522	0	59.69366605331192	1.041851015216262	-8.233421519234669	0	0	-0.007155962727109605	-0.003495796202760808	0.05790618689745305	-0.1785236943365998	-0.04867821746666662	0.01118919877090578	0.466843527530526	4.44257242242871	0	0	0	-7.561017941596698	0	85.63980607367621	4.44257242242871	0	0
0.05	0.01127221919552722	-0.01143670485752519	-90.06703230287404	0	0.9399999998679526	0	44.25720587269106	-15.21392285120968	0	59.70017837774574	1.04196467671959	-7.926063987728131	0	0	44.25720587269106	-15.21392285120968	0	59.70017837774574	1.04196467671959	-7.926063987728131	0	0	0.05087103125286487	-0.0004868252775264146	0.05785629955395029	-0.2497538094527648	-0.06963306771223357	0.006653098697590808	0.4762972358874183	4.35786702674943	0	0	0	-7.667126258793836	0	85.72293152176337	4.35786702674943	0	0
0.06	0.002583531282214039	-0.005937413236110477	-90.06577966129947	0	0.9399999998679526	0	44.27104816305365	-14.91800272581331	0	59.7046091815968	1.042042008835301	-7.722148674463011	0	0	44.27104816305365	-14.91800272581331	0	59.7046091815968	1.042042008835301	-7.722148674463011	0	0	0.04771402160438951	-0.0002532874346870115	0.05991701299890186	-0.2390164150256841	-0.0564934132743586	-0.01982969809311192	0.4605348333942194	4.30019564164541	0	0	0	-7.739491522606913	0	85.77952727454337	4.30019564164541	0	0
0.07000000000000001	0.003965807844763085	0.002471887486550654	-90.01170173276449	0	0.9399999998679526	0	44.28777736957248	-14.56618966529996	0	59.70997236816949	1.042135614099393	-7.48136106400653	0	0	44.28777736957248	-14.56618966529996	0	59.70997236816949	1.042135614099393	-7.48136106400653	0	0	0.1295805156028985	0.001709235224677232	0.007810839375239344	-0.3683402603443657	-0.08733927855120144	-0.02574468018034649	0.5949724503251724	4.23035582251194	0	0	0	-7.827234025930535	0	85.84806456887839	4.23035582251194	0	0
0.08	-0.01163098667057898	-0.0746986463051388	-90.06571985430429	0	0.9399999998679526	0	44.30613310395922	-14.20556254632497	0	59.71589447829554	1.042238974419759	-7.24013391703101	0	0	44.30613310395922	-14.20556254632497	0	59.71589447829554	1.042238974419759	-7.24013391703101	0	0	0.1002959979809848	0.01893473964246854	0.06080841603899587	-0.3405624515557222	-0.09127870842345841	-0.01703556295357759	0.4826281477796855	4.153049397026276	0	0	0	-7.924882727647166	0	85.92392957550737	4.153049397026276	0	0
0.09	-0.01466611966950966	-0.06062726816482064	-90.11424905282259	0	0.9399999998679526	0	44.32342463862831	-13.88409585618398	0	59.7215046016947	1.042336889544517	-7.029106599434873	0	0	44.32342463862831	-13.88409585618398	0	59.7215046016947	1.042336889544517	-7.029106599434873	0	0	0.203227248704358	0.03326027498538121	0.1020112938433467	-0.6728872800669282	-0.1582636723225152	-0.01597019974444107	0.9727890005536637	4.079677258685797	0	0	0	-8.017995357072003	0	85.99593391847233	4.079677258685797	0	0
0.1	-0.01146233831232752	-0.06712763008898219	-90.12710268511555	0	0.9399999998679526	0	44.33970298220565	-13.59417719983845	0	59.72680681984273	1.042429430708859	-6.841633787570803	0	0	44.33970298220565	-13.59417719983845	0	59.72680681984273	1.042429430708859	-6.841633787570803	0	0	0.2387382458245706	0.02022122389624859	0.1823063097746899	-0.5358685927468257	-0.1076581788274103	-0.08072189491262347	0.6066602387019173	4.010216727936428	0	0	0	-8.106444628435147	0	86.0640997569522	4.010216727936428	0	0
